<svg xmlns="http://www.w3.org/2000/svg" version="1.1" width="720" height="304" viewBox="0 0 720 304"><rect width="100%" height="100%" fill="#161618"/><text xml:space="preserve" font-family="&quot;JuliaMono&quot;, &quot;Iosevka Term&quot;, &quot;Cascadia Mono&quot;, &quot;JetBrains Mono&quot;, &quot;SFMono-Regular&quot;, Menlo, Consolas, monospace" font-size="14" fill="#f4f6f7" dominant-baseline="hanging" font-variant-ligatures="none"><tspan x="304 312 320 328 336" y="8" font-weight="700">Quick</tspan><tspan x="352 360 368 376 384 392 400" y="8" font-weight="700">Example</tspan><tspan x="8 16 24 32 40" y="24">Value</tspan><tspan x="240 248 256" y="24" fill="#138d90">[-]</tspan><tspan x="272 280 288 296 304 312" y="24">Series</tspan><tspan x="336 344" y="24" fill="#b9770e">◆─</tspan><tspan x="360 368 376 384 392 400 408 416" y="24">Baseline</tspan><tspan x="440 448 456" y="24" fill="#7b7d7d">[=]</tspan><tspan x="472 480 488 496 504" y="24">Event</tspan><tspan x="32 40 48 56 64 72 80 88 96 104 112 120 128 136 144 152 160 168 176 184 192 200 208 216 224 232 240 248 256 264 272 280 288 296 304 312 320 328 336 344 352 360 368 376 384 392 400 408 416 424 432 440 448 456 464 472 480 488 496 504 512 520 528 536 544 552 560 568 576 584 592 600 608 616 624 632 640 648 656 664 672 680 688 696" y="40">┌──────────────────────────────────────────────────────────────────────────────────┐</tspan><tspan x="8 16" y="56">10</tspan><tspan x="32" y="56">┤</tspan><tspan x="400" y="56" fill="#7b7d7d">│</tspan><tspan x="656 664 672 680" y="56" fill="#138d90">⢀⣀⡠⠄</tspan><tspan x="696" y="56">│</tspan><tspan x="32" y="72">│</tspan><tspan x="400" y="72" fill="#7b7d7d">│</tspan><tspan x="608 616 624 632 640 648 656" y="72" fill="#138d90">⣀⠤⠤⠒⠊⠉⠁</tspan><tspan x="696" y="72">│</tspan><tspan x="16" y="88">8</tspan><tspan x="32" y="88">┤</tspan><tspan x="400" y="88" fill="#7b7d7d">│</tspan><tspan x="584 592 600" y="88" fill="#138d90">⡠⠔⠉</tspan><tspan x="696" y="88">│</tspan><tspan x="32" y="104">│</tspan><tspan x="400" y="104" fill="#7b7d7d">│</tspan><tspan x="432 440 448 456 464 472 480 488 496 504" y="104" fill="#138d90">⢀⣀⡠⠤⠔⠒⠤⠤⣀⡀</tspan><tspan x="552 560 568 576" y="104" fill="#138d90">⢀⡠⠒⠉</tspan><tspan x="640 648 656 664 672 680" y="104" fill="#b9770e">⢀⣀⡠⠤⠔◆</tspan><tspan x="696" y="104">│</tspan><tspan x="16" y="120">6</tspan><tspan x="32" y="120">┤</tspan><tspan x="392" y="120" fill="#138d90">⣀</tspan><tspan x="400" y="120" fill="#7b7d7d">│</tspan><tspan x="408 416 424 432" y="120" fill="#138d90">⠒⠒⠉⠁</tspan><tspan x="504 512 520 528 536 544 552" y="120" fill="#138d90">⠈⠉⠒⠒⠤⠒⠁</tspan><tspan x="592 600 608 616 624 632 640" y="120" fill="#b9770e">⣀⡠◆⠒⠒⠉⠁</tspan><tspan x="696" y="120">│</tspan><tspan x="32" y="136">│</tspan><tspan x="368 376 384" y="136" fill="#138d90">⣀⠔⠊</tspan><tspan x="400" y="136" fill="#7b7d7d">│</tspan><tspan x="544 552 560 568 576 584" y="136" fill="#b9770e">⢀⣀⠤⠔⠊⠉</tspan><tspan x="696" y="136">│</tspan><tspan x="32" y="152">│</tspan><tspan x="240 248 256 264 272 280 288 296 304" y="152" fill="#138d90">⡠⠔⠊⠑⠒⠢⠤⣀⣀</tspan><tspan x="344 352 360" y="152" fill="#138d90">⡠⠔⠉</tspan><tspan x="400" y="152" fill="#7b7d7d">│</tspan><tspan x="424 432 440 448 456 464 472 480 488 496 504 512 520 528 536 544" y="152" fill="#b9770e">⣀⡠⠤⠔⠒⠊◆⠉⠉⠉⠉⠉⠉⠉◆⠁</tspan><tspan x="696" y="152">│</tspan><tspan x="16" y="168">4</tspan><tspan x="32" y="168">┤</tspan><tspan x="208 216 224 232" y="168" fill="#138d90">⢀⠤⠒⠉</tspan><tspan x="312 320 328 336" y="168" fill="#138d90">⠉⠉⠒⠉</tspan><tspan x="368 376 384 392 400 408 416" y="168" fill="#b9770e">⣀⡠⠤⠔◆⠉⠉</tspan><tspan x="696" y="168">│</tspan><tspan x="32" y="184">│</tspan><tspan x="176 184 192 200 208" y="184" fill="#138d90">⣀⡠⠔⠊⠁</tspan><tspan x="240 248 256 264 272 280 288 296 304 312 320 328 336 344 352 360" y="184" fill="#b9770e">⢀⣀◆⠤⠤⠤⠤⠤⠤⠤⠤◆⠔⠒⠊⠉</tspan><tspan x="400" y="184" fill="#7b7d7d">│</tspan><tspan x="696" y="184">│</tspan><tspan x="16" y="200">2</tspan><tspan x="32" y="200">┤</tspan><tspan x="128 136 144 152 160 168" y="200" fill="#138d90">⢀⣀⠤⠔⠊⠉</tspan><tspan x="200 208 216 224 232 240" y="200" fill="#b9770e">⣀⡠⠤⠒⠉⠁</tspan><tspan x="400" y="200" fill="#7b7d7d">│</tspan><tspan x="696" y="200">│</tspan><tspan x="32" y="216">│</tspan><tspan x="72 80 88 96 104 112 120 128" y="216" fill="#138d90">⢀⣀⠤⠤⠒⠒⠉⠁</tspan><tspan x="144 152 160 168 176 184 192" y="216" fill="#b9770e">⢀⣀⠤⠔⠒⠊◆</tspan><tspan x="400" y="216" fill="#7b7d7d">│</tspan><tspan x="696" y="216">│</tspan><tspan x="32" y="232">│</tspan><tspan x="48 56 64 72 80 88 96 104 112 120 128 136 144" y="232" fill="#b9770e">◆⠚⠛⠓⠒⠒⠒⠒⠒◆⠊⠉⠁</tspan><tspan x="400" y="232" fill="#7b7d7d">│</tspan><tspan x="696" y="232">│</tspan><tspan x="32 40 48 56 64 72 80 88 96 104 112 120 128 136 144 152 160 168 176 184 192 200 208 216 224 232 240 248 256 264 272 280 288 296 304 312 320 328 336 344 352 360 368 376 384 392 400 408 416 424 432 440 448 456 464 472 480 488 496 504 512 520 528 536 544 552 560 568 576 584 592 600 608 616 624 632 640 648 656 664 672 680 688 696" y="248">└─────────────┬───────────────────┬───────────────────┬───────────────────┬────────┘</tspan><tspan x="104 112 120 128 136 144 152 160 168 176" y="264">2024-01-02</tspan><tspan x="264 272 280 288 296 304 312 320 328 336" y="264">2024-01-04</tspan><tspan x="424 432 440 448 456 464 472 480 488 496" y="264">2024-01-06</tspan><tspan x="584 592 600 608 616 624 632 640 648 656" y="264">2024-01-09</tspan><tspan x="344 352 360 368" y="280">Date</tspan></text></svg>