<svg xmlns="http://www.w3.org/2000/svg" version="1.1" width="912" height="400" viewBox="0 0 912 400"><rect width="100%" height="100%" fill="#161618"/><text xml:space="preserve" font-family="&quot;JuliaMono&quot;, &quot;Iosevka Term&quot;, &quot;Cascadia Mono&quot;, &quot;JetBrains Mono&quot;, &quot;SFMono-Regular&quot;, Menlo, Consolas, monospace" font-size="14" fill="#f4f6f7" dominant-baseline="hanging" font-variant-ligatures="none"><tspan x="400 408 416 424 432" y="8" font-weight="700">Quick</tspan><tspan x="448 456 464 472 480 488 496" y="8" font-weight="700">Example</tspan><tspan x="8 16 24 32 40" y="24">Value</tspan><tspan x="336 344 352" y="24" fill="#138d90">[-]</tspan><tspan x="368 376 384 392 400 408" y="24">Series</tspan><tspan x="432 440" y="24" fill="#b9770e">◆─</tspan><tspan x="456 464 472 480 488 496 504 512" y="24">Baseline</tspan><tspan x="536 544 552" y="24" fill="#7b7d7d">[=]</tspan><tspan x="568 576 584 592 600" y="24">Event</tspan><tspan x="32 40 48 56 64 72 80 88 96 104 112 120 128 136 144 152 160 168 176 184 192 200 208 216 224 232 240 248 256 264 272 280 288 296 304 312 320 328 336 344 352 360 368 376 384 392 400 408 416 424 432 440 448 456 464 472 480 488 496 504 512 520 528 536 544 552 560 568 576 584 592 600 608 616 624 632 640 648 656 664 672 680 688 696 704 712 720 728 736 744 752 760 768 776 784 792 800 808 816 824 832 840 848 856 864 872 880 888" y="40">┌──────────────────────────────────────────────────────────────────────────────────────────────────────────┐</tspan><tspan x="8 16" y="56">10</tspan><tspan x="32" y="56">┤</tspan><tspan x="504" y="56" fill="#7b7d7d">│</tspan><tspan x="864" y="56" fill="#138d90">⣀</tspan><tspan x="888" y="56">│</tspan><tspan x="32" y="72">│</tspan><tspan x="504" y="72" fill="#7b7d7d">│</tspan><tspan x="816 824 832 840 848 856" y="72" fill="#138d90">⢀⡠⠤⠒⠊⠉</tspan><tspan x="888" y="72">│</tspan><tspan x="32" y="88">│</tspan><tspan x="504" y="88" fill="#7b7d7d">│</tspan><tspan x="776 784 792 800 808 816" y="88" fill="#138d90">⣀⠤⠔⠒⠉⠁</tspan><tspan x="888" y="88">│</tspan><tspan x="16" y="104">8</tspan><tspan x="32" y="104">┤</tspan><tspan x="504" y="104" fill="#7b7d7d">│</tspan><tspan x="752 760 768" y="104" fill="#138d90">⣀⠔⠉</tspan><tspan x="888" y="104">│</tspan><tspan x="32" y="120">│</tspan><tspan x="504" y="120" fill="#7b7d7d">│</tspan><tspan x="592 600" y="120" fill="#138d90">⣀⡀</tspan><tspan x="728 736 744" y="120" fill="#138d90">⢀⠤⠊</tspan><tspan x="864" y="120" fill="#b9770e">◆</tspan><tspan x="888" y="120">│</tspan><tspan x="32" y="136">│</tspan><tspan x="504" y="136" fill="#7b7d7d">│</tspan><tspan x="544 552 560 568 576 584" y="136" fill="#138d90">⢀⣀⠤⠔⠊⠉</tspan><tspan x="600 608 616 624 632 640" y="136" fill="#138d90">⠈⠉⠒⠢⠤⣀</tspan><tspan x="704 712 720 728" y="136" fill="#138d90">⢀⡠⠊⠁</tspan><tspan x="816 824 832 840 848 856" y="136" fill="#b9770e">⢀⡠⠤⠒⠊⠉</tspan><tspan x="888" y="136">│</tspan><tspan x="32" y="152">│</tspan><tspan x="504" y="152" fill="#7b7d7d">│</tspan><tspan x="512 520 528 536 544" y="152" fill="#138d90">⡠⠤⠒⠉⠁</tspan><tspan x="648 656 664 672 680 688 696 704" y="152" fill="#138d90">⠉⠑⠒⠤⢄⡠⠔⠁</tspan><tspan x="768 776 784 792 800 808 816" y="152" fill="#b9770e">⢀◆⠤⠔⠒⠉⠁</tspan><tspan x="888" y="152">│</tspan><tspan x="16" y="168">6</tspan><tspan x="32" y="168">┤</tspan><tspan x="480 488 496" y="168" fill="#138d90">⢀⡠⠊</tspan><tspan x="504" y="168" fill="#7b7d7d">│</tspan><tspan x="728 736 744 752 760 768" y="168" fill="#b9770e">⢀⣀⠤⠒⠊⠁</tspan><tspan x="888" y="168">│</tspan><tspan x="32" y="184">│</tspan><tspan x="464 472 480" y="184" fill="#138d90">⡠⠔⠁</tspan><tspan x="504" y="184" fill="#7b7d7d">│</tspan><tspan x="696 704 712 720 728" y="184" fill="#b9770e">⣀⠤⠔⠊⠁</tspan><tspan x="888" y="184">│</tspan><tspan x="32" y="200">│</tspan><tspan x="304 312 320 328 336 344 352 360" y="200" fill="#138d90">⢀⡠⠒⠉⠒⠢⢄⣀</tspan><tspan x="440 448 456" y="200" fill="#138d90">⢀⠔⠊</tspan><tspan x="504" y="200" fill="#7b7d7d">│</tspan><tspan x="560 568 576 584 592 600 608 616 624 632 640 648 656 664 672 680 688" y="200" fill="#b9770e">⣀⡠⠔⠒◆⠉⠉⠉⠉⠉⠉⠉⠉⠉⠉⠉◆</tspan><tspan x="888" y="200">│</tspan><tspan x="16" y="216">4</tspan><tspan x="32" y="216">┤</tspan><tspan x="288 296 304" y="216" fill="#138d90">⡠⠔⠁</tspan><tspan x="368 376 384 392 400 408 416 424 432 440" y="216" fill="#138d90">⠉⠑⠒⠤⣀⡀⢀⡠⠊⠁</tspan><tspan x="504" y="216" fill="#7b7d7d">│</tspan><tspan x="512 520 528 536 544 552" y="216" fill="#b9770e">⢀⣀⠤⠒⠊⠉</tspan><tspan x="888" y="216">│</tspan><tspan x="32" y="232">│</tspan><tspan x="264 272 280" y="232" fill="#138d90">⡠⠔⠉</tspan><tspan x="408 416" y="232" fill="#138d90">⠈⠁</tspan><tspan x="464 472 480 488 496" y="232" fill="#b9770e">⢀⣀⠤⠔⠒</tspan><tspan x="504" y="232" fill="#7b7d7d">│</tspan><tspan x="512" y="232" fill="#b9770e">⠁</tspan><tspan x="888" y="232">│</tspan><tspan x="32" y="248">│</tspan><tspan x="240 248 256" y="248" fill="#138d90">⣀⠔⠊</tspan><tspan x="424 432 440 448 456 464" y="248" fill="#b9770e">⣀⡠⠤⠒⠊⠁</tspan><tspan x="504" y="248" fill="#7b7d7d">│</tspan><tspan x="888" y="248">│</tspan><tspan x="32" y="264">│</tspan><tspan x="200 208 216 224 232" y="264" fill="#138d90">⣀⡠⠔⠒⠉</tspan><tspan x="288 296 304 312 320 328 336 344 352 360 368 376 384 392 400 408 416" y="264" fill="#b9770e">⣀⡠⠤⠒⠊◆⠉⠉⠉⠉⠉⠉⠉⠉⠉⠉◆</tspan><tspan x="504" y="264" fill="#7b7d7d">│</tspan><tspan x="888" y="264">│</tspan><tspan x="16" y="280">2</tspan><tspan x="32" y="280">┤</tspan><tspan x="152 160 168 176 184 192" y="280" fill="#138d90">⢀⣀⠤⠒⠊⠉</tspan><tspan x="240 248 256 264 272 280" y="280" fill="#b9770e">⢀⣀⠤⠔⠒⠉</tspan><tspan x="504" y="280" fill="#7b7d7d">│</tspan><tspan x="888" y="280">│</tspan><tspan x="32" y="296">│</tspan><tspan x="104 112 120 128 136 144 152" y="296" fill="#138d90">⢀⣀⠤⠔⠒⠉⠁</tspan><tspan x="200 208 216 224 232 240" y="296" fill="#b9770e">⣀⡠⠔⠒◆⠁</tspan><tspan x="504" y="296" fill="#7b7d7d">│</tspan><tspan x="888" y="296">│</tspan><tspan x="32" y="312">│</tspan><tspan x="64 72 80 88 96 104" y="312" fill="#138d90">⣀⡠⠤⠒⠊⠁</tspan><tspan x="152 160 168 176 184 192" y="312" fill="#b9770e">⢀⣀⠤⠒⠊⠉</tspan><tspan x="504" y="312" fill="#7b7d7d">│</tspan><tspan x="888" y="312">│</tspan><tspan x="32" y="328">│</tspan><tspan x="56 64 72 80 88 96 104 112 120 128 136 144 152" y="328" fill="#b9770e">◆⠉⠉⠉⠉⠉⠉⠉⠉⠉⠉◆⠁</tspan><tspan x="504" y="328" fill="#7b7d7d">│</tspan><tspan x="888" y="328">│</tspan><tspan x="32 40 48 56 64 72 80 88 96 104 112 120 128 136 144 152 160 168 176 184 192 200 208 216 224 232 240 248 256 264 272 280 288 296 304 312 320 328 336 344 352 360 368 376 384 392 400 408 416 424 432 440 448 456 464 472 480 488 496 504 512 520 528 536 544 552 560 568 576 584 592 600 608 616 624 632 640 648 656 664 672 680 688 696 704 712 720 728 736 744 752 760 768 776 784 792 800 808 816 824 832 840 848 856 864 872 880 888" y="344">└─────────────────┬─────────────────────────┬─────────────────────────┬─────────────────────────┬──────────┘</tspan><tspan x="136 144 152 160 168 176 184 192 200 208" y="360">2024-01-02</tspan><tspan x="344 352 360 368 376 384 392 400 408 416" y="360">2024-01-04</tspan><tspan x="552 560 568 576 584 592 600 608 616 624" y="360">2024-01-06</tspan><tspan x="760 768 776 784 792 800 808 816 824 832" y="360">2024-01-09</tspan><tspan x="440 448 456 464" y="376">Date</tspan></text></svg>