<svg xmlns="http://www.w3.org/2000/svg" version="1.1" width="912" height="400" viewBox="0 0 912 400"><rect width="100%" height="100%" fill="#161618"/><text xml:space="preserve" font-family="&quot;JuliaMono&quot;, &quot;Iosevka Term&quot;, &quot;Cascadia Mono&quot;, &quot;JetBrains Mono&quot;, &quot;SFMono-Regular&quot;, Menlo, Consolas, monospace" font-size="14" fill="#f4f6f7" dominant-baseline="hanging" font-variant-ligatures="none"><tspan x="416 424 432" y="8" font-weight="700">SVG</tspan><tspan x="448 456 464 472 480 488" y="8" font-weight="700">Export</tspan><tspan x="392 400 408 416 424 432 440 448" y="24" font-weight="700">Strategy</tspan><tspan x="464 472 480 488 496 504 512" y="24" font-weight="700">Monitor</tspan><tspan x="8 16 24 32 40 48 56 64 72 80" y="40">Normalized</tspan><tspan x="96 104 112 120 128" y="40">Level</tspan><tspan x="352 360 368" y="40" fill="#138d90">[-]</tspan><tspan x="384 392 400 408 416 424 432 440" y="40">Strategy</tspan><tspan x="464 472 480" y="40" fill="#2e86c1">[-]</tspan><tspan x="496 504 512 520 528 536 544 552 560" y="40">Benchmark</tspan><tspan x="584 592 600" y="40" fill="#7b7d7d">[=]</tspan><tspan x="616 624 632 640 648 656 664 672" y="40">Baseline</tspan><tspan x="40 48 56 64 72 80 88 96 104 112 120 128 136 144 152 160 168 176 184 192 200 208 216 224 232 240 248 256 264 272 280 288 296 304 312 320 328 336 344 352 360 368 376 384 392 400 408 416 424 432 440 448 456 464 472 480 488 496 504 512 520 528 536 544 552 560 568 576 584 592 600 608 616 624 632 640 648 656 664 672 680 688 696 704 712 720 728 736 744 752 760 768 776 784 792 800 808 816 824 832 840 848 856 864 872 880 888" y="56">┌─────────────────────────────────────────────────────────────────────────────────────────────────────────┐</tspan><tspan x="8 16 24" y="72">1.3</tspan><tspan x="40" y="72">┤</tspan><tspan x="864" y="72" fill="#138d90">⢀</tspan><tspan x="888" y="72">│</tspan><tspan x="40" y="88">│</tspan><tspan x="832 840 848 856 864" y="88" fill="#138d90">⢀⡠⠔⠊⠁</tspan><tspan x="888" y="88">│</tspan><tspan x="40" y="104">│</tspan><tspan x="808 816 824 832" y="104" fill="#138d90">⣀⠤⠒⠁</tspan><tspan x="888" y="104">│</tspan><tspan x="8 16 24" y="120">1.2</tspan><tspan x="40" y="120">┤</tspan><tspan x="776 784 792 800" y="120" fill="#138d90">⢀⡠⠔⠉</tspan><tspan x="888" y="120">│</tspan><tspan x="40" y="136">│</tspan><tspan x="632 640 648 656 664" y="136" fill="#138d90">⢀⡠⠤⣀⣀</tspan><tspan x="744 752 760 768 776" y="136" fill="#138d90">⢀⡠⠔⠊⠁</tspan><tspan x="888" y="136">│</tspan><tspan x="40" y="152">│</tspan><tspan x="600 608 616 624 632" y="152" fill="#138d90">⣀⠤⠔⠊⠁</tspan><tspan x="672 680 688 696 704 712 720 728 736 744" y="152" fill="#138d90">⠉⠑⠒⠢⠤⢄⡠⠔⠊⠁</tspan><tspan x="888" y="152">│</tspan><tspan x="40" y="168">│</tspan><tspan x="568 576 584 592" y="168" fill="#138d90">⣀⠤⠒⠉</tspan><tspan x="888" y="168">│</tspan><tspan x="40" y="184">│</tspan><tspan x="544 552 560" y="184" fill="#138d90">⢀⠤⠊</tspan><tspan x="888" y="184">│</tspan><tspan x="40" y="200">│</tspan><tspan x="408 416 424 432 440 448 456" y="200" fill="#138d90">⢀⡠⠔⠢⠤⣀⡀</tspan><tspan x="520 528 536 544" y="200" fill="#138d90">⢀⡠⠊⠁</tspan><tspan x="888" y="200">│</tspan><tspan x="8 16 24" y="216">1.1</tspan><tspan x="40" y="216">┤</tspan><tspan x="384 392 400 408" y="216" fill="#138d90">⢀⠤⠒⠁</tspan><tspan x="456 464 472 480 488 496 504 512 520" y="216" fill="#138d90">⠈⠉⠑⠒⠤⢄⡠⠔⠁</tspan><tspan x="888" y="216">│</tspan><tspan x="40" y="232">│</tspan><tspan x="360 368 376 384" y="232" fill="#138d90">⣀⠤⠊⠁</tspan><tspan x="888" y="232">│</tspan><tspan x="40" y="248">│</tspan><tspan x="344 352" y="248" fill="#138d90">⡠⠊</tspan><tspan x="760 768 776 784 792 800 808 816 824 832 840 848 856 864" y="248" fill="#2e86c1">⣀⣀⣀⠤⠤⠤⠤⠒⠒⠒⠒⠊⠉⠉</tspan><tspan x="888" y="248">│</tspan><tspan x="40" y="264">│</tspan><tspan x="208" y="264" fill="#138d90">⣀</tspan><tspan x="328 336" y="264" fill="#138d90">⡠⠊</tspan><tspan x="560 568 576 584 592 600 608 616 624 632 640 648 656 664 672 680 688 696 704 712 720 728 736 744 752" y="264" fill="#2e86c1">⢀⣀⣀⣀⣀⣀⣀⣀⣀⣀⣀⣀⣀⡠⠤⠤⠤⠤⠒⠒⠒⠒⠉⠉⠉</tspan><tspan x="888" y="264">│</tspan><tspan x="40" y="280">│</tspan><tspan x="144 152 160 168 176 184 192 200" y="280" fill="#138d90">⣀⣀⠤⠤⠒⠒⠉⠉</tspan><tspan x="216 224 232 240" y="280" fill="#138d90">⠉⠒⠤⣀</tspan><tspan x="304 312 320" y="280" fill="#138d90">⢀⠔⠉</tspan><tspan x="376 384 392 400 408 416 424 432 440 448 456 464 472 480 488 496 504 512 520 528 536 544 552 560" y="280" fill="#2e86c1">⣀⣀⣀⣀⡠⠤⠤⠤⠤⠤⠤⠤⠤⠤⠤⠤⠤⠔⠒⠒⠊⠉⠉⠁</tspan><tspan x="888" y="280">│</tspan><tspan x="40" y="296">│</tspan><tspan x="104 112 120 128 136" y="296" fill="#138d90">⢀⡠⠔⠊⠉</tspan><tspan x="192 200 208 216 224 232 240 248 256 264 272 280 288 296 304 312 320 328 336 344 352 360 368" y="296" fill="#2e86c1">⢀⣀⣀⣀⣀⣀⣀⣑⣢⣄⣀⣀⣀⠴⠥⠤⠒⠒⠒⠉⠉⠉⠉</tspan><tspan x="888" y="296">│</tspan><tspan x="24" y="312">1</tspan><tspan x="40" y="312">┤</tspan><tspan x="72 80 88 96 104 112 120 128 136 144 152 160 168 176 184 192" y="312" fill="#2e86c1">⣀⣤⣒⡩⠥⠤⠔⠒⠒⠒⠊⠉⠉⠉⠉⠁</tspan><tspan x="272 280 288" y="312" fill="#138d90">⠈⠑⠁</tspan><tspan x="888" y="312">│</tspan><tspan x="40" y="328">│</tspan><tspan x="48 56 64 72 80 88 96 104 112 120 128 136 144 152 160 168 176 184 192 200 208 216 224 232 240 248 256 264 272 280 288 296 304 312 320 328 336 344 352 360 368 376 384 392 400 408 416 424 432 440 448 456 464 472 480 488 496 504 512 520 528 536 544 552 560 568 576 584 592 600 608 616 624 632 640 648 656 664 672 680 688 696 704 712 720 728 736 744 752 760 768 776 784 792 800 808 816 824 832 840 848 856 864 872 880" y="328" fill="#7b7d7d">─────────────────────────────────────────────────────────────────────────────────────────────────────────</tspan><tspan x="888" y="328">│</tspan><tspan x="40 48 56 64 72 80 88 96 104 112 120 128 136 144 152 160 168 176 184 192 200 208 216 224 232 240 248 256 264 272 280 288 296 304 312 320 328 336 344 352 360 368 376 384 392 400 408 416 424 432 440 448 456 464 472 480 488 496 504 512 520 528 536 544 552 560 568 576 584 592 600 608 616 624 632 640 648 656 664 672 680 688 696 704 712 720 728 736 744 752 760 768 776 784 792 800 808 816 824 832 840 848 856 864 872 880 888" y="344">└──────────────┬────────────────────┬────────────────────┬────────────────────┬────────────────────┬──────┘</tspan><tspan x="120 128 136 144 152 160 168 176 184 192" y="360">2024-01-02</tspan><tspan x="288 296 304 312 320 328 336 344 352 360" y="360">2024-01-04</tspan><tspan x="456 464 472 480 488 496 504 512 520 528" y="360">2024-01-06</tspan><tspan x="624 632 640 648 656 664 672 680 688 696" y="360">2024-01-09</tspan><tspan x="792 800 808 816 824 832 840 848 856 864" y="360">2024-01-11</tspan><tspan x="440 448 456 464" y="376">Date</tspan></text></svg>