<svg xmlns="http://www.w3.org/2000/svg" version="1.1" width="784" height="368" viewBox="0 0 784 368"><rect width="100%" height="100%" fill="#161618"/><text xml:space="preserve" font-family="&quot;JuliaMono&quot;, &quot;Iosevka Term&quot;, &quot;Cascadia Mono&quot;, &quot;JetBrains Mono&quot;, &quot;SFMono-Regular&quot;, Menlo, Consolas, monospace" font-size="14" fill="#f4f6f7" dominant-baseline="hanging" font-variant-ligatures="none"><tspan x="352 360 368" y="8" font-weight="700">SVG</tspan><tspan x="384 392 400 408 416 424" y="8" font-weight="700">Export</tspan><tspan x="328 336 344 352 360 368 376 384" y="24" font-weight="700">Strategy</tspan><tspan x="400 408 416 424 432 440 448" y="24" font-weight="700">Monitor</tspan><tspan x="8 16 24 32 40 48 56 64 72 80" y="40">Normalized</tspan><tspan x="96 104 112 120 128" y="40">Level</tspan><tspan x="288 296 304" y="40" fill="#138d90">[-]</tspan><tspan x="320 328 336 344 352 360 368 376" y="40">Strategy</tspan><tspan x="400 408 416" y="40" fill="#2e86c1">[-]</tspan><tspan x="432 440 448 456 464 472 480 488 496" y="40">Benchmark</tspan><tspan x="520 528 536" y="40" fill="#7b7d7d">[=]</tspan><tspan x="552 560 568 576 584 592 600 608" y="40">Baseline</tspan><tspan x="40 48 56 64 72 80 88 96 104 112 120 128 136 144 152 160 168 176 184 192 200 208 216 224 232 240 248 256 264 272 280 288 296 304 312 320 328 336 344 352 360 368 376 384 392 400 408 416 424 432 440 448 456 464 472 480 488 496 504 512 520 528 536 544 552 560 568 576 584 592 600 608 616 624 632 640 648 656 664 672 680 688 696 704 712 720 728 736 744 752 760" y="56">┌─────────────────────────────────────────────────────────────────────────────────────────┐</tspan><tspan x="8 16 24" y="72">1.3</tspan><tspan x="40" y="72">┤</tspan><tspan x="744" y="72" fill="#138d90">⡀</tspan><tspan x="760" y="72">│</tspan><tspan x="40" y="88">│</tspan><tspan x="712 720 728 736" y="88" fill="#138d90">⣀⠤⠒⠉</tspan><tspan x="760" y="88">│</tspan><tspan x="40" y="104">│</tspan><tspan x="680 688 696 704" y="104" fill="#138d90">⢀⡠⠔⠊</tspan><tspan x="760" y="104">│</tspan><tspan x="8 16 24" y="120">1.2</tspan><tspan x="40" y="120">┤</tspan><tspan x="656 664 672 680" y="120" fill="#138d90">⢀⠤⠒⠁</tspan><tspan x="760" y="120">│</tspan><tspan x="40" y="136">│</tspan><tspan x="528 536 544 552 560 568 576 584 592 600" y="136" fill="#138d90">⣀⠤⠒⠉⠑⠒⠤⢄⣀⡀</tspan><tspan x="632 640 648 656" y="136" fill="#138d90">⣀⠔⠊⠁</tspan><tspan x="760" y="136">│</tspan><tspan x="40" y="152">│</tspan><tspan x="496 504 512 520" y="152" fill="#138d90">⣀⠤⠒⠉</tspan><tspan x="600 608 616 624" y="152" fill="#138d90">⠈⠉⠒⠉</tspan><tspan x="760" y="152">│</tspan><tspan x="40" y="168">│</tspan><tspan x="472 480 488" y="168" fill="#138d90">⡠⠔⠉</tspan><tspan x="760" y="168">│</tspan><tspan x="40" y="184">│</tspan><tspan x="352 360 368 376 384 392 400" y="184" fill="#138d90">⢀⡠⠔⠢⠤⣀⡀</tspan><tspan x="448 456 464" y="184" fill="#138d90">⣀⠔⠉</tspan><tspan x="760" y="184">│</tspan><tspan x="8 16 24" y="200">1.1</tspan><tspan x="40" y="200">┤</tspan><tspan x="328 336 344 352" y="200" fill="#138d90">⣀⠔⠊⠁</tspan><tspan x="400 408 416 424 432 440" y="200" fill="#138d90">⠈⠉⠒⠢⠔⠊</tspan><tspan x="760" y="200">│</tspan><tspan x="40" y="216">│</tspan><tspan x="304 312 320" y="216" fill="#138d90">⡠⠒⠉</tspan><tspan x="712 720 728 736 744" y="216" fill="#2e86c1">⣀⣀⣀⠤⠄</tspan><tspan x="760" y="216">│</tspan><tspan x="40" y="232">│</tspan><tspan x="288 296" y="232" fill="#138d90">⡠⠊</tspan><tspan x="600 608 616 624 632 640 648 656 664 672 680 688 696 704" y="232" fill="#2e86c1">⢀⣀⣀⣀⡠⠤⠤⠤⠔⠒⠒⠊⠉⠉</tspan><tspan x="760" y="232">│</tspan><tspan x="40" y="248">│</tspan><tspan x="152 160 168 176 184 192 200" y="248" fill="#138d90">⢀⣀⠤⠔⠢⢄⡀</tspan><tspan x="272 280" y="248" fill="#138d90">⢀⠎</tspan><tspan x="360 368 376 384 392 400 408 416 424 432 440 448 456 464 472 480 488 496 504 512 520 528 536 544 552 560 568 576 584 592 600" y="248" fill="#2e86c1">⢀⣀⣀⣀⣀⣀⣀⣀⣀⣀⣀⠤⠤⠤⠤⠒⠒⠒⠒⠒⠒⠒⠒⠒⠒⠒⠊⠉⠉⠉⠁</tspan><tspan x="760" y="248">│</tspan><tspan x="40" y="264">│</tspan><tspan x="104 112 120 128 136 144 152" y="264" fill="#138d90">⢀⣀⠤⠔⠒⠉⠁</tspan><tspan x="200 208 216 224" y="264" fill="#138d90">⠈⠑⠤⣀</tspan><tspan x="256" y="264" fill="#138d90">⢀</tspan><tspan x="264 272 280 288 296 304 312 320 328 336 344 352 360" y="264" fill="#2e86c1">⣔⣁⣀⣀⠤⠤⠤⠒⠒⠊⠉⠉⠁</tspan><tspan x="760" y="264">│</tspan><tspan x="24" y="280">1</tspan><tspan x="40" y="280">┤</tspan><tspan x="64 72" y="280" fill="#138d90">⢀⣠</tspan><tspan x="80 88 96 104 112 120 128 136 144 152 160 168 176 184 192 200 208 216 224 232 240 248 256" y="280" fill="#2e86c1">⣤⣒⣊⡡⠤⠤⠤⠔⠒⠒⠒⠊⠉⠉⠉⠉⠉⠉⠉⠉⠛⠝⠉</tspan><tspan x="760" y="280">│</tspan><tspan x="40" y="296">│</tspan><tspan x="48 56 64 72 80 88 96 104 112 120 128 136 144 152 160 168 176 184 192 200 208 216 224 232 240 248 256 264 272 280 288 296 304 312 320 328 336 344 352 360 368 376 384 392 400 408 416 424 432 440 448 456 464 472 480 488 496 504 512 520 528 536 544 552 560 568 576 584 592 600 608 616 624 632 640 648 656 664 672 680 688 696 704 712 720 728 736 744 752" y="296" fill="#7b7d7d">─────────────────────────────────────────────────────────────────────────────────────────</tspan><tspan x="760" y="296">│</tspan><tspan x="40 48 56 64 72 80 88 96 104 112 120 128 136 144 152 160 168 176 184 192 200 208 216 224 232 240 248 256 264 272 280 288 296 304 312 320 328 336 344 352 360 368 376 384 392 400 408 416 424 432 440 448 456 464 472 480 488 496 504 512 520 528 536 544 552 560 568 576 584 592 600 608 616 624 632 640 648 656 664 672 680 688 696 704 712 720 728 736 744 752 760" y="312">└────────────┬─────────────────┬────────────────┬─────────────────┬─────────────────┬─────┘</tspan><tspan x="104 112 120 128 136 144 152 160 168 176" y="328">2024-01-02</tspan><tspan x="248 256 264 272 280 288 296 304 312 320" y="328">2024-01-04</tspan><tspan x="384 392 400 408 416 424 432 440 448 456" y="328">2024-01-06</tspan><tspan x="528 536 544 552 560 568 576 584 592 600" y="328">2024-01-09</tspan><tspan x="672 680 688 696 704 712 720 728 736 744" y="328">2024-01-11</tspan><tspan x="376 384 392 400" y="344">Date</tspan></text></svg>